# xmcd
#
# Track frame offsets:
#	150
#	13785
#	29237
#	44300
#	52757
#	70855
#	89872
#	112245
#	124262
#	140272
#	144687
#	167787
#	189695
#	207562
#
# Disc length: 3212 seconds
#
# Revision: 1
# Processed by: cddbd v1.5.1PL0 Copyright (c) Steve Scherf et al.
# Submitted via: CDex 1.50Beta5
#
DISCID=df0c8a0e
DTITLE=Various Artist - クラシック・ホーム・コンサート
DYEAR=1900
DGENRE=Classical
TTITLE0=ウィーン・フォルクスオバー管弦楽団/ラテッキー行進曲
TTITLE1=オリバー・コルベストン/ホフマンの舟歌
TTITLE2=オリバー・コルベストン/愛の喜び
TTITLE3=大川内弘/野ばら
TTITLE4=ハンブルグ弦楽四重奏団/ハイドンのセレナーゼ
TTITLE5=ティボール・ヴァルガ室内合奏団/モーツアルトのメヌエット
TTITLE6=ワルター・シュミット/月の光
TTITLE7=ワルター・シュミット/エリーゼのために
TTITLE8=ワルター・シュミット/乙女の祈り
TTITLE9=イダ・チェルネッカ/前奏曲第7番
TTITLE10=ハンブルク放送管弦楽団/アンダンテ・カンタービレ
TTITLE11=ウィーンフォルクスオバー管弦楽団/美しき青きドナウ
TTITLE12=大川内弘/モーツアルトの子守唄
TTITLE13=リュブリアナ放送管弦楽団/交響曲第5番「運命」第1楽章
EXTD=
EXTT0=
EXTT1=
EXTT2=
EXTT3=
EXTT4=
EXTT5=
EXTT6=
EXTT7=
EXTT8=
EXTT9=
EXTT10=
EXTT11=
EXTT12=
EXTT13=
PLAYORDER=
